# This file uses centimeters as units for non-parametric coordinates.

mtllib Pilar.mtl
g default
v -705.000000 -1.689607 40.000999
v -695.000977 -1.689607 50.000000
v -705.000000 478.310393 40.000999
v -695.000977 478.310393 50.000000
v -605.000000 -1.689607 40.000999
v -614.999023 -1.689607 50.000000
v -605.000000 478.310393 40.000999
v -614.999023 478.310393 50.000000
v -705.000000 478.310393 -40.000999
v -695.000977 478.310393 -50.000000
v -705.000000 -1.689607 -40.000999
v -695.000977 -1.689607 -50.000000
v -614.999023 478.310393 -50.000000
v -605.000000 478.310393 -40.000999
v -605.000000 -1.689607 -40.000999
v -614.999023 -1.689607 -50.000000
vt 0.375000 0.274998
vt 0.625000 0.274998
vt 0.375000 0.475002
vt 0.625000 0.774997
vt 0.625000 0.975002
vt 0.600002 1.000000
vt 0.399998 1.000000
vt 0.375000 0.975002
vt 0.399998 0.250000
vt 0.600002 -0.000000
vt 0.149998 0.250000
vt 0.149998 -0.000000
vt 0.350002 -0.000000
vt 0.399998 0.750000
vt 0.600002 0.500000
vt 0.649998 0.250000
vt 0.850002 -0.000000
vt 0.850002 0.250000
vt 0.399998 -0.000000
vt 0.350002 0.250000
vt 0.649998 -0.000000
vt 0.600002 0.250000
vt 0.399998 0.500000
vt 0.375000 0.774997
vt 0.625000 0.475002
vt 0.600002 0.750000
vn 0.000000 0.000000 1.000000
vn 0.000000 0.000000 1.000000
vn 0.000000 0.000000 1.000000
vn 0.000000 0.000000 1.000000
vn 0.000000 0.000000 -1.000000
vn 0.000000 0.000000 -1.000000
vn 0.000000 0.000000 -1.000000
vn 0.000000 0.000000 -1.000000
vn 1.000000 0.000000 0.000000
vn 1.000000 0.000000 0.000000
vn 1.000000 0.000000 0.000000
vn 1.000000 0.000000 0.000000
vn -1.000000 0.000000 0.000000
vn -1.000000 0.000000 0.000000
vn -1.000000 0.000000 0.000000
vn -1.000000 0.000000 0.000000
vn 0.000000 1.000000 0.000000
vn 0.000000 1.000000 0.000000
vn 0.000000 1.000000 0.000000
vn 0.000000 1.000000 0.000000
vn 0.000000 1.000000 0.000000
vn 0.000000 1.000000 0.000000
vn 0.000000 1.000000 0.000000
vn 0.000000 1.000000 0.000000
vn 0.000000 -1.000000 0.000000
vn 0.000000 -1.000000 0.000000
vn 0.000000 -1.000000 0.000000
vn 0.000000 -1.000000 0.000000
vn 0.000000 -1.000000 0.000000
vn 0.000000 -1.000000 0.000000
vn 0.000000 -1.000000 0.000000
vn 0.000000 -1.000000 0.000000
vn -0.707106 0.000000 0.707108
vn -0.707106 0.000000 0.707108
vn -0.707106 0.000000 0.707108
vn -0.707106 0.000000 0.707108
vn 0.707106 0.000000 0.707108
vn 0.707106 0.000000 0.707108
vn 0.707106 0.000000 0.707108
vn 0.707106 0.000000 0.707108
vn -0.707106 0.000000 -0.707108
vn -0.707106 0.000000 -0.707108
vn -0.707106 0.000000 -0.707108
vn -0.707106 0.000000 -0.707108
vn 0.707106 0.000000 -0.707108
vn 0.707106 0.000000 -0.707108
vn 0.707106 0.000000 -0.707108
vn 0.707106 0.000000 -0.707108
s off
g pCube1
usemtl initialShadingGroup
f 4/9/1 2/19/2 6/10/3 8/22/4
f 12/14/5 10/23/6 13/15/7 16/26/8
f 7/16/9 5/21/10 15/17/11 14/18/12
f 9/11/13 11/12/14 1/13/15 3/20/16
f 3/1/17 4/9/18 8/22/19 7/2/20 14/25/21 13/15/22 10/23/23 9/3/24
f 11/24/25 12/14/26 16/26/27 15/4/28 5/5/29 6/6/30 2/7/31 1/8/32
f 1/13/33 2/19/34 4/9/35 3/20/36
f 6/10/37 5/21/38 7/16/39 8/22/40
f 9/3/41 10/23/42 12/14/43 11/24/44
f 13/15/45 14/25/46 15/4/47 16/26/48
